<svg viewBox="0 0 512 512" xml:space="preserve" xmlns="http://www.w3.org/2000/svg" enable-background="new 0 0 512 512"><path d="M144.219 232.785c7.402-35.442 31.287-64.884 63.228-79.959 3.02 4.111 23.433 32.408 42.341 66.044-53.417 14.179-100.463 13.984-105.569 13.915zm119.762 24.382c1.491-.481 2.997-.934 4.503-1.355a382.145 382.145 0 0 0-9.262-19.382c-57.023 17.062-112.368 16.355-117.368 16.258-.03 1.159-.053 2.318-.053 3.479 0 29.336 11.106 56.119 29.351 76.367 2.592-4.435 33.939-56.339 92.829-75.367zm67.716-86.42c-20.165-17.891-46.677-28.764-75.697-28.764a114.12 114.12 0 0 0-26.761 3.17c3.163 4.224 23.9 32.461 42.626 66.843 40.601-15.211 57.784-38.312 59.832-41.249zm-51.059 58.235c2.643 5.438 5.203 10.964 7.567 16.551a684.316 684.316 0 0 1 2.47 5.896c37.996-4.789 75.758 2.869 79.508 3.652-.241-26.935-9.871-51.7-25.79-71.135-2.395 3.261-21.528 27.794-63.755 45.036zM466 255.992c0 115.689-94.033 209.48-210.008 209.48S46 371.682 46 255.992c0-115.673 94.018-209.465 209.992-209.465S466 140.319 466 255.992zm-76.308-.007c0-73.718-59.968-133.693-133.692-133.693s-133.692 59.975-133.692 133.693c0 73.747 59.968 133.715 133.692 133.715s133.692-59.968 133.692-133.715zm-114.205 18.96c-64.403 22.454-87.527 67.121-89.583 71.315 19.359 15.097 43.704 24.118 70.096 24.118 15.812 0 30.91-3.238 44.614-9.081-1.701-10.015-8.336-44.931-24.382-86.608-.233.09-.489.173-.745.256zm22.138-5.519c14.939 41.03 21.009 74.471 22.183 81.42 25.617-17.333 43.861-44.757 48.944-76.548-3.9-1.228-35.338-10.617-71.127-4.872z" fill="#4d4d4d" class="fill-000000"></path></svg>